<?xml version="1.0" standalone="no"?>
<!DOCTYPE svg PUBLIC "-//W3C//DTD SVG 20010904//EN"
 "http://www.w3.org/TR/2001/REC-SVG-20010904/DTD/svg10.dtd">
<svg version="1.0" xmlns="http://www.w3.org/2000/svg"
 width="64.000000pt" height="64.000000pt" viewBox="0 0 64.000000 64.000000"
 preserveAspectRatio="xMidYMid meet">
<metadata>
Created by potrace 1.15, written by Peter Selinger 2001-2017
</metadata>
<g transform="translate(0.000000,64.000000) scale(0.100000,-0.100000)"
fill="#000000" stroke="none">
<path d="M83 521 c-4 -14 -15 -21 -42 -23 l-36 -3 0 -195 0 -195 315 0 315 0
0 195 0 195 -216 3 c-206 2 -217 3 -222 22 -4 17 -14 20 -57 20 -43 0 -53 -3
-57 -19z m328 -130 c35 -35 39 -44 39 -91 0 -47 -4 -56 -39 -91 -35 -35 -44
-39 -91 -39 -47 0 -56 4 -91 39 -35 35 -39 44 -39 91 0 47 4 56 39 91 35 35
44 39 91 39 47 0 56 -4 91 -39z"/>
<path d="M246 374 c-21 -21 -26 -36 -26 -74 0 -66 34 -100 100 -100 38 0 53 5
74 26 37 38 37 110 0 148 -21 21 -36 26 -74 26 -38 0 -53 -5 -74 -26z"/>
</g>
</svg>
